<svg xmlns="http://www.w3.org/2000/svg" viewBox="0 0 180 180" fill="none"><rect width="180" height="180" rx="36" fill="#0b0b0f"/><path d="M49 104.5c0-22.8 18.5-41.3 41.3-41.3h33.8c10.8 0 19.5 8.8 19.5 19.6s-8.7 19.4-19.5 19.4H78.6c-5 0-9.1 4.1-9.1 9.1s4.1 9.1 9.1 9.1h52c4.7 0 8.5 3.8 8.5 8.5s-3.8 8.5-8.5 8.5H86.1c-16.3 0-37.1-13.2-37.1-33.3v-9Z" fill="#22d3ee"/><path d="M63.7 61.3c7.7-13 21.9-21 37.2-21 6.4 0 12.7 1.4 18.4 4" stroke="#8b5cf6" stroke-width="8" stroke-linecap="round"/><circle cx="123.8" cy="55.1" r="5.2" fill="#8b5cf6"/></svg>