<svg xmlns="http://www.w3.org/2000/svg" viewBox="0 0 32 32" fill="none"><rect width="32" height="32" rx="8" fill="#0b0b0f"/><path d="M8.5 18.7c0-4.2 3.4-7.6 7.6-7.6h6.7c2 0 3.7 1.6 3.7 3.7s-1.6 3.7-3.7 3.7H13.5c-.9 0-1.7.8-1.7 1.7s.8 1.7 1.7 1.7h10.4c.9 0 1.6.7 1.6 1.6s-.7 1.6-1.6 1.6h-8.7c-3.1 0-5.7-2.5-5.7-5.7v-.7Z" fill="#22d3ee"/><path d="M13.6 10.3c1.5-2.5 4.3-4 7.3-4 1.2 0 2.4.3 3.6.8" stroke="#8b5cf6" stroke-width="1.6" stroke-linecap="round"/><circle cx="24.1" cy="9.7" r="1.1" fill="#8b5cf6"/></svg>