<svg xmlns="http://www.w3.org/2000/svg" viewBox="0 0 64 64" fill="none"><rect width="64" height="64" rx="16" fill="#0b0b0f"/><path d="M17 37.5c0-8.3 6.7-15 15-15h13.4c4 0 7.3 3.2 7.3 7.3 0 4-3.2 7.3-7.3 7.3H24.8c-1.9 0-3.5 1.6-3.5 3.5s1.6 3.5 3.5 3.5h20.6c1.8 0 3.3 1.5 3.3 3.3s-1.5 3.3-3.3 3.3H28.8c-6 0-11-4.9-11-10.9v-2.3Z" fill="#22d3ee"/><path d="M25.7 23.8c2.8-4.7 8-7.7 13.7-7.7 2.4 0 4.7.5 6.8 1.4" stroke="#8b5cf6" stroke-width="3.2" stroke-linecap="round"/><circle cx="48" cy="19" r="2.1" fill="#8b5cf6"/></svg>